<svg width="150" height="40" viewBox="0 0 150 40" fill="none" xmlns="http://www.w3.org/2000/svg">
    <path d="M149.5 20c0 10.77-8.73 19.5-19.5 19.5s-19.5-8.73-19.5-19.5S119.23.5 130 .5s19.5 8.73 19.5 19.5z" stroke="#282F36" stroke-opacity=".15"/>
    <path d="M138.98 14.668a.083.083 0 00-.099-.023 6.745 6.745 0 01-1.593.488 3.573 3.573 0 001.243-1.766.084.084 0 00-.123-.1 6.777 6.777 0 01-2.121.828 3.534 3.534 0 00-2.55-1.095c-1.95 0-3.537 1.604-3.537 3.576 0 .239.023.475.068.705a9.72 9.72 0 01-6.946-3.61.085.085 0 00-.139.011 3.608 3.608 0 00.853 4.596 3.353 3.353 0 01-1.234-.404.083.083 0 00-.083 0 .086.086 0 00-.043.073v.046a3.584 3.584 0 002.487 3.416 3.36 3.36 0 01-1.176-.017.086.086 0 00-.097.11 3.545 3.545 0 003.071 2.471 6.75 6.75 0 01-4.053 1.337c-.272 0-.545-.017-.814-.049a.085.085 0 00-.055.157A9.794 9.794 0 00127.378 27c6.203 0 9.909-5.094 9.909-10.019 0-.137-.002-.273-.008-.41a7.1 7.1 0 001.707-1.801.086.086 0 00-.006-.102z" fill="#282F36" fill-opacity=".3"/>
    <path d="M94.5 20c0 10.77-8.73 19.5-19.5 19.5S55.5 30.77 55.5 20 64.23.5 75 .5 94.5 9.23 94.5 20z" stroke="#282F36" stroke-opacity=".15"/>
    <path fill-rule="evenodd" clip-rule="evenodd" d="M74.997 10.006c-2.715 0-3.056.011-4.122.06-1.064.048-1.79.218-2.427.465a4.9 4.9 0 00-1.77 1.153 4.9 4.9 0 00-1.153 1.77c-.247.636-.416 1.363-.465 2.427-.049 1.066-.06 1.407-.06 4.122s.011 3.055.06 4.121c.049 1.064.218 1.791.465 2.427a4.9 4.9 0 001.153 1.77 4.9 4.9 0 001.77 1.154c.636.247 1.363.416 2.427.464 1.066.049 1.407.06 4.122.06s3.055-.011 4.121-.06c1.065-.048 1.791-.217 2.427-.464a4.9 4.9 0 001.77-1.153 4.9 4.9 0 001.154-1.771c.247-.636.416-1.363.465-2.427.048-1.066.06-1.406.06-4.121 0-2.715-.012-3.056-.06-4.122-.049-1.064-.218-1.79-.465-2.427a4.9 4.9 0 00-1.153-1.77 4.9 4.9 0 00-1.77-1.153c-.637-.247-1.363-.417-2.428-.465-1.066-.049-1.406-.06-4.121-.06zm0 1.801c2.67 0 2.985.01 4.04.058.974.045 1.503.208 1.856.345.466.18.8.398 1.15.747.349.35.566.683.747 1.15.137.352.3.881.344 1.856.048 1.054.058 1.37.058 4.04 0 2.669-.01 2.985-.058 4.04-.044.974-.207 1.503-.344 1.856-.181.466-.398.8-.748 1.149-.35.35-.683.567-1.15.748-.352.137-.88.3-1.856.344-1.053.048-1.37.058-4.04.058-2.669 0-2.985-.01-4.039-.058-.974-.044-1.504-.207-1.856-.344a3.097 3.097 0 01-1.15-.748 3.098 3.098 0 01-.747-1.15c-.137-.352-.3-.881-.344-1.856-.049-1.054-.059-1.37-.059-4.04 0-2.669.01-2.985.058-4.039.045-.975.208-1.504.345-1.856.181-.467.398-.8.748-1.15.35-.35.682-.566 1.149-.747.352-.137.882-.3 1.856-.345 1.054-.048 1.37-.058 4.04-.058z" fill="#282F36" fill-opacity=".3"/>
    <path fill-rule="evenodd" clip-rule="evenodd" d="M74.997 23.336a3.332 3.332 0 110-6.665 3.332 3.332 0 010 6.665zm0-8.466a5.134 5.134 0 100 10.267 5.134 5.134 0 000-10.267zM81.533 14.666a1.2 1.2 0 11-2.4 0 1.2 1.2 0 012.4 0z" fill="#282F36" fill-opacity=".3"/>
    <path d="M39.5 20c0 10.77-8.73 19.5-19.5 19.5S.5 30.77.5 20 9.23.5 20 .5 39.5 9.23 39.5 20z" stroke="#282F36" stroke-opacity=".15"/>
    <path d="M24.623 11.004L22.225 11c-2.695 0-4.436 1.739-4.436 4.43v2.042h-2.412a.372.372 0 00-.377.367v2.96c0 .203.169.367.377.367h2.412v7.467c0 .203.168.367.377.367h3.146a.372.372 0 00.378-.367v-7.467h2.82a.372.372 0 00.377-.367v-2.96c0-.097-.04-.19-.11-.26a.383.383 0 00-.267-.107h-2.82v-1.731c0-.832.203-1.255 1.317-1.255h1.616a.372.372 0 00.377-.367V11.37a.372.372 0 00-.377-.367z" fill="#282F36" fill-opacity=".3"/>
</svg>
